<svg xmlns="http://www.w3.org/2000/svg" width="21" height="18" viewBox="0 0 21 18">
  <defs>
    <style>
      .cls-1 {
        fill: #9b75fb;
        fill-rule: evenodd;
      }
    </style>
  </defs>
  <path id="car_channel.svg" class="cls-1" d="M420,351.914V352h-5v-0.086h-9V352h-5v-0.086a0.839,0.839,0,0,1-1-1.028v-5.143a0.71,0.71,0,0,1,.375-0.643l1-1.029,1.125-5.042A1.226,1.226,0,0,1,403.75,338h13.5a1.226,1.226,0,0,1,1.25,1.029l1.125,5.042,1,1.029a1.182,1.182,0,0,1,.375.9v4.886A0.839,0.839,0,0,1,420,351.914Zm-16.5-4.924A1.512,1.512,0,1,0,405,348.5,1.423,1.423,0,0,0,403.5,346.99Zm12.75-6.979h-11.5L404,344h13Zm1.25,6.979A1.512,1.512,0,1,0,419,348.5,1.423,1.423,0,0,0,417.5,346.99ZM406,353v0.943A2.753,2.753,0,0,1,404,356h-1a2.753,2.753,0,0,1-2-2.057V353h5Zm14,0v0.943A2.371,2.371,0,0,1,418,356h-1a2.137,2.137,0,0,1-2-2.057V353h5Z" transform="translate(-400 -338)"/>
</svg>
