<svg xmlns="http://www.w3.org/2000/svg" width="20" height="18" viewBox="0 0 20 18">
  <defs>
    <style>
      .cls-1 {
        fill: #46c9d5;
        fill-rule: evenodd;
      }
    </style>
  </defs>
  <path id="video_channel.svg_拷贝" data-name="video_channel.svg 拷贝" class="cls-1" d="M419,675h-6v1h2a1,1,0,1,1,0,2h-8a1,1,0,1,1,0-2h2v-1h-6a2,2,0,0,1-2-2V662a2,2,0,0,1,2-2h16a2,2,0,0,1,2,2v11A2,2,0,0,1,419,675Zm0-6v-6a1,1,0,0,0-1-1H404a1,1,0,0,0-1,1v9a1,1,0,0,0,1,1h14a1,1,0,0,0,1-1v-3Zm-4.6-.48-4.5,2.331a2.633,2.633,0,0,1-.6.146,1.257,1.257,0,0,1-1.3-1.166v-4.662A1.257,1.257,0,0,1,409.3,664a1.721,1.721,0,0,1,.6.146l4.5,2.331a1.03,1.03,0,0,1,.6,1.02A1.229,1.229,0,0,1,414.4,668.52Z" transform="translate(-401 -660)"/>
</svg>
