<svg xmlns="http://www.w3.org/2000/svg" width="18.656" height="18.562" viewBox="0 0 18.656 18.562">
  <defs>
    <style>
      .cls-1 {
        fill: #46c9d5;
        fill-rule: evenodd;
      }
    </style>
  </defs>
  <path id="entertainment_channel.svg" class="cls-1" d="M416.7,256.289a6.349,6.349,0,0,1-4.971.66c0.006-.034-4.222-4.252-4.264-4.241a6.4,6.4,0,0,1,.72-4.91C408.13,247.86,416.672,256.309,416.7,256.289Zm3.216-5.694a6.032,6.032,0,0,0-6.025-5.992,6.3,6.3,0,0,0-4.262,1.759s8.44,8.434,8.509,8.484A6.125,6.125,0,0,0,419.916,250.6Zm-13.166,2.936,4.179,4.166s-6.314,5.059-6.348,5.093c-0.5.5-2.225,0.331-2.225,0.331l-1.045-1.042s-0.238-1.78.3-2.251Z" transform="translate(-401.25 -244.594)"/>
</svg>
