<svg xmlns="http://www.w3.org/2000/svg" width="20" height="20" viewBox="0 0 20 20">
  <defs>
    <style>
      .cls-1 {
        fill: #ffc000;
        fill-rule: evenodd;
      }
    </style>
  </defs>
  <path id="funny_channel.svg" class="cls-1" d="M410,1278a10,10,0,1,1,10-10A10.014,10.014,0,0,1,410,1278Zm0-2.01c-3.664,0-7-3.15-7-6.61a0.386,0.386,0,0,1,.389-0.39h13.222a0.386,0.386,0,0,1,.389.39C417,1272.84,413.664,1275.99,410,1275.99Zm-2.139-10.98a0.786,0.786,0,0,1-.428-0.5,1.45,1.45,0,0,0-1.284-.5,1.429,1.429,0,0,0-1.283.5,0.844,0.844,0,0,1-.428.5,0.465,0.465,0,0,1-.427-0.5,2.165,2.165,0,1,1,4.277,0A0.465,0.465,0,0,1,407.861,1265.01Zm7.7,0a0.57,0.57,0,0,1-.428-0.5,1.9,1.9,0,0,0-2.567,0,0.77,0.77,0,0,1-.428.5,0.466,0.466,0,0,1-.428-0.5,2.165,2.165,0,1,1,4.278,0A0.465,0.465,0,0,1,415.562,1265.01Z" transform="translate(-400 -1258)"/>
</svg>
