<svg xmlns="http://www.w3.org/2000/svg" width="20" height="18" viewBox="0 0 20 18">
  <defs>
    <style>
      .cls-1 {
        fill: #778ce6;
        fill-rule: evenodd;
      }
    </style>
  </defs>
  <path id="image" class="cls-1" d="M419,632H403a2,2,0,0,1-2-2V616a2,2,0,0,1,2-2h16a2,2,0,0,1,2,2v14A2,2,0,0,1,419,632Zm0-15a1,1,0,0,0-1-1H404a1,1,0,0,0-1,1v12a1,1,0,0,0,1,1h14a1,1,0,0,0,1-1V617Zm-15,9,3-2,3,1,4-4,4,3v5H404v-3Zm2-4a2,2,0,1,1,2-2A2,2,0,0,1,406,622Z" transform="translate(-401 -614)"/>
</svg>
