<svg xmlns="http://www.w3.org/2000/svg" width="22" height="20" viewBox="0 0 22 20">
  <defs>
    <style>
      .cls-1 {
        fill: #ff6464;
        fill-rule: evenodd;
      }
    </style>
  </defs>
  <path id="recommand_channel.svg" class="cls-1" d="M421.692,115.254l-10.044-10.047a1.055,1.055,0,0,0-1.306,0L400.3,115.254a1,1,0,1,0,1.306,1.507l1.306-1.306V124a0.949,0.949,0,0,0,1,1h4.015a0.949,0.949,0,0,0,1-1v-4.019h4.019V124a0.949,0.949,0,0,0,1,1h4.015a0.949,0.949,0,0,0,1-1v-8.54l1.306,1.206a0.973,0.973,0,0,0,1.407,0A0.97,0.97,0,0,0,421.692,115.254Zm-8.737.7h-4.019v-2.01h4.019v2.01Z" transform="translate(-400 -105)"/>
</svg>
