<svg xmlns="http://www.w3.org/2000/svg" width="20" height="20" viewBox="0 0 20 20">
  <defs>
    <style>
      .cls-1 {
        fill: #85da46;
        fill-rule: evenodd;
      }
    </style>
  </defs>
  <path id="sports_channel.svg" class="cls-1" d="M411,403a10,10,0,1,1,10-10A10,10,0,0,1,411,403Zm5.041-16.209-5.013,4.982-2.319-2.306a6.6,6.6,0,0,0,1.492-4.427,7.93,7.93,0,0,0-1.75.382,5.146,5.146,0,0,1-1.019,2.775l-1.44-1.43a8.009,8.009,0,0,0-1.2,1.2l1.461,1.453a4.925,4.925,0,0,1-2.81.988,7.934,7.934,0,0,0-.378,1.65c0.066,0,.133.022,0.2,0.022a7.036,7.036,0,0,0,4.224-1.431l2.339,2.325L404.762,398a8.009,8.009,0,0,0,1.195,1.2l5.071-5.041,2.324,2.31a6.6,6.6,0,0,0-1.47,4.473,7.93,7.93,0,0,0,1.614-.352,5.523,5.523,0,0,1,1.127-2.857l1.452,1.443a8.009,8.009,0,0,0,1.187-1.213l-1.435-1.427a4.955,4.955,0,0,1,2.7-.868,7.924,7.924,0,0,0,.41-1.748,7.18,7.18,0,0,0-4.352,1.386l-2.358-2.343,5-4.975A8.049,8.049,0,0,0,416.041,386.791Z" transform="translate(-401 -383)"/>
</svg>
