<svg xmlns="http://www.w3.org/2000/svg" width="20" height="20" viewBox="0 0 20 20">
  <defs>
    <style>
      .cls-1 {
        fill: #44a8ff;
        fill-rule: evenodd;
      }
    </style>
  </defs>
  <path id="technology_channel.svg" class="cls-1" d="M420.915,294.235c0,0.033-.012.066-0.018,0.1-0.024.128-.05,0.259-0.081,0.392-0.01.043-.021,0.087-0.032,0.13-0.031.129-.066,0.26-0.1,0.392-0.012.043-.025,0.086-0.037,0.13-0.043.142-.089,0.287-0.139,0.433-0.011.034-.021,0.066-0.033,0.1a19.5,19.5,0,0,1-1.012,2.363c-0.006.011-.011,0.022-0.017,0.034q-0.147.293-.305,0.586l-0.021.041c-0.11.2-.222,0.408-0.339,0.613h0c-1.37,2.411-1.7,3.357-3.491,5.153a14.347,14.347,0,0,1-2.332,1.94c0.006,0.033.023,0.056,0.027,0.09,0.367,2.884-3.775,4.728-4.34,4.179s-0.194-2.034.414-3.409a4.2,4.2,0,0,1-.689-0.264c-1.314,1.128-5.186,3.463-6.126,2.52s1.4-4.85,2.521-6.157a4.061,4.061,0,0,1-.249-0.69c-1.376.617-2.878,0.986-3.42,0.424s1.29-4.723,4.164-4.354c0.054,0.007.1,0.023,0.152,0.033a14.573,14.573,0,0,1,1.911-2.294c1.793-1.8,2.74-2.121,5.147-3.494h0c0.2-.116.407-0.228,0.61-0.338l0.042-.022q0.294-.158.583-0.3l0.037-.018a19.619,19.619,0,0,1,2.357-1.014l0.1-.033q0.219-.075.432-0.138l0.13-.038c0.132-.038.262-0.073,0.391-0.1l0.13-.032c0.133-.031.263-0.057,0.391-0.081l0.1-.019a6.029,6.029,0,0,1,.9-0.087c0.036,0,.07,0,0.106,0,0.1,0,.2,0,0.292.013,0.045,0,.089.01,0.133,0.016,0.081,0.011.16,0.023,0.236,0.04,0.045,0.009.088,0.02,0.131,0.031,0.073,0.02.142,0.043,0.209,0.068,0.04,0.014.08,0.029,0.118,0.045a2.024,2.024,0,0,1,.2.1c0.03,0.018.062,0.033,0.091,0.053a1.539,1.539,0,0,1,.447.448c0.02,0.029.035,0.061,0.053,0.091a1.835,1.835,0,0,1,.1.2c0.017,0.038.031,0.078,0.046,0.117,0.025,0.068.048,0.137,0.067,0.21,0.012,0.043.022,0.086,0.032,0.131q0.024,0.115.039,0.237c0.006,0.044.012,0.088,0.016,0.133,0.009,0.095.012,0.193,0.014,0.293,0,0.035,0,.07,0,0.106A5.788,5.788,0,0,1,420.915,294.235Zm-6.012,2.871c-0.689-.691-1.325-1.4-1.913-2.114-2.151,1.3-3.023,1.629-4.574,3.186-2.936,2.947-2.831,4.329-1.613,5.78,0.008,0.009.018,0.019,0.025,0.028,0.17,0.2.358,0.4,0.565,0.608,1.715,1.722,3.315,2.344,6.674-1.028,1.527-1.533,1.736-2.4,2.934-4.554C416.292,298.426,415.589,297.793,414.9,297.106ZM410,304a2,2,0,1,1,2-2A2,2,0,0,1,410,304Z" transform="translate(-401 -291)"/>
</svg>
